{
	"asset":{
		"generator":"Khronos glTF Blender I/O v4.0.44",
		"version":"2.0"
	},
	"scene":0,
	"scenes":[
		{
			"name":"Scene",
			"nodes":[
				0,
				1
			]
		}
	],
	"nodes":[
		{
			"mesh":0,
			"name":"loungeSofa"
		},
		{
			"mesh":1,
			"name":"loungeSofa_1"
		}
	],
	"materials":[
		{
			"name":"carpet",
			"pbrMetallicRoughness":{
				"baseColorFactor":[
					0.8799999952316284,
					0.10999999940395355,
					0.09000000357627869,
					1
				],
				"metallicFactor":0
			}
		},
		{
			"name":"wood",
			"pbrMetallicRoughness":{
				"baseColorFactor":[
					0.7900000214576721,
					0.33000001311302185,
					0.12999999523162842,
					1
				],
				"metallicFactor":0
			}
		}
	],
	"meshes":[
		{
			"name":"loungeSofa_2",
			"primitives":[
				{
					"attributes":{
						"POSITION":0,
						"NORMAL":1,
						"TEXCOORD_0":2
					},
					"indices":3,
					"material":0
				},
				{
					"attributes":{
						"POSITION":4,
						"NORMAL":5,
						"TEXCOORD_0":6
					},
					"indices":7,
					"material":1
				}
			]
		},
		{
			"name":"loungeSofa_3",
			"primitives":[
				{
					"attributes":{
						"POSITION":8,
						"NORMAL":9,
						"TEXCOORD_0":10
					},
					"indices":7,
					"material":1
				},
				{
					"attributes":{
						"POSITION":11,
						"NORMAL":12,
						"TEXCOORD_0":13
					},
					"indices":3,
					"material":0
				}
			]
		}
	],
	"accessors":[
		{
			"bufferView":0,
			"componentType":5126,
			"count":132,
			"max":[
				0,
				0.46000000834465027,
				0.4099999964237213
			],
			"min":[
				-0.9800000190734863,
				0.05000000074505806,
				0
			],
			"type":"VEC3"
		},
		{
			"bufferView":1,
			"componentType":5126,
			"count":132,
			"type":"VEC3"
		},
		{
			"bufferView":2,
			"componentType":5126,
			"count":132,
			"type":"VEC2"
		},
		{
			"bufferView":3,
			"componentType":5123,
			"count":264,
			"type":"SCALAR"
		},
		{
			"bufferView":4,
			"componentType":5126,
			"count":80,
			"max":[
				0,
				0.05000000074505806,
				0.4099999964237213
			],
			"min":[
				-0.9800000190734863,
				0,
				0.019999999552965164
			],
			"type":"VEC3"
		},
		{
			"bufferView":5,
			"componentType":5126,
			"count":80,
			"type":"VEC3"
		},
		{
			"bufferView":6,
			"componentType":5126,
			"count":80,
			"type":"VEC2"
		},
		{
			"bufferView":7,
			"componentType":5123,
			"count":120,
			"type":"SCALAR"
		},
		{
			"bufferView":8,
			"componentType":5126,
			"count":80,
			"max":[
				0,
				0.05000000074505806,
				0.4099999964237213
			],
			"min":[
				-0.9800000190734863,
				0,
				0.019999999552965164
			],
			"type":"VEC3"
		},
		{
			"bufferView":9,
			"componentType":5126,
			"count":80,
			"type":"VEC3"
		},
		{
			"bufferView":10,
			"componentType":5126,
			"count":80,
			"type":"VEC2"
		},
		{
			"bufferView":11,
			"componentType":5126,
			"count":132,
			"max":[
				0,
				0.46000000834465027,
				0.4099999964237213
			],
			"min":[
				-0.9800000190734863,
				0.05000000074505806,
				0
			],
			"type":"VEC3"
		},
		{
			"bufferView":12,
			"componentType":5126,
			"count":132,
			"type":"VEC3"
		},
		{
			"bufferView":13,
			"componentType":5126,
			"count":132,
			"type":"VEC2"
		}
	],
	"bufferViews":[
		{
			"buffer":0,
			"byteLength":1584,
			"byteOffset":0,
			"target":34962
		},
		{
			"buffer":0,
			"byteLength":1584,
			"byteOffset":1584,
			"target":34962
		},
		{
			"buffer":0,
			"byteLength":1056,
			"byteOffset":3168,
			"target":34962
		},
		{
			"buffer":0,
			"byteLength":528,
			"byteOffset":4224,
			"target":34963
		},
		{
			"buffer":0,
			"byteLength":960,
			"byteOffset":4752,
			"target":34962
		},
		{
			"buffer":0,
			"byteLength":960,
			"byteOffset":5712,
			"target":34962
		},
		{
			"buffer":0,
			"byteLength":640,
			"byteOffset":6672,
			"target":34962
		},
		{
			"buffer":0,
			"byteLength":240,
			"byteOffset":7312,
			"target":34963
		},
		{
			"buffer":0,
			"byteLength":960,
			"byteOffset":7552,
			"target":34962
		},
		{
			"buffer":0,
			"byteLength":960,
			"byteOffset":8512,
			"target":34962
		},
		{
			"buffer":0,
			"byteLength":640,
			"byteOffset":9472,
			"target":34962
		},
		{
			"buffer":0,
			"byteLength":1584,
			"byteOffset":10112,
			"target":34962
		},
		{
			"buffer":0,
			"byteLength":1584,
			"byteOffset":11696,
			"target":34962
		},
		{
			"buffer":0,
			"byteLength":1056,
			"byteOffset":13280,
			"target":34962
		}
	],
	"buffers":[
		{
			"byteLength":14336,
			"uri":"Lounge%20Sofa.bin"
		}
	]
}
